<svg width="30" height="30" viewBox="0 0 30 30" fill="none" xmlns="http://www.w3.org/2000/svg">
  <g clip-path="url(#clip0_560_2575)">
    <path d="M14.535 0.123448C14.6766 0.0425503 14.8369 0 15 0C15.1631 0 15.3234 0.0425503 15.465 0.123448L22.4963 4.14157C22.6397 4.22354 22.759 4.34197 22.842 4.48487C22.925 4.62778 22.9687 4.79007 22.9688 4.95532V12.4459L29.5275 16.1959C29.6704 16.2776 29.7894 16.3954 29.8723 16.5376C29.9552 16.6798 29.9993 16.8413 30 17.0059V25.0422C29.9999 25.2074 29.9562 25.3697 29.8732 25.5126C29.7903 25.6556 29.671 25.774 29.5275 25.8559L22.4963 29.8741C22.3546 29.955 22.1943 29.9975 22.0312 29.9975C21.8682 29.9975 21.7079 29.955 21.5662 29.8741L15 26.1241L8.43375 29.8759C8.29213 29.9568 8.13185 29.9994 7.96875 29.9994C7.80565 29.9994 7.64537 29.9568 7.50375 29.8759L0.4725 25.8578C0.329012 25.7759 0.209737 25.6574 0.12676 25.5145C0.0437836 25.3716 5.33007e-05 25.2093 0 25.0441L0 17.0078C5.33007e-05 16.8426 0.0437836 16.6803 0.12676 16.5374C0.209737 16.3945 0.329012 16.276 0.4725 16.1941L7.03125 12.4459V4.95532C7.0313 4.79007 7.07503 4.62778 7.15801 4.48487C7.24099 4.34197 7.36026 4.22354 7.50375 4.14157L14.535 0.123448ZM7.96875 14.0697L2.8275 17.0078L7.96875 19.9459L13.11 17.0078L7.96875 14.0697ZM14.0625 18.6241L8.90625 21.5697V27.4459L14.0625 24.5003V18.6241ZM15.9375 24.5003L21.0938 27.4459V21.5697L15.9375 18.6241V24.5003ZM16.89 17.0078L22.0312 19.9459L27.1725 17.0078L22.0312 14.0697L16.89 17.0078ZM21.0938 12.4459V6.5697L15.9375 9.5172V15.3934L21.0938 12.4459ZM14.0625 15.3934V9.5172L8.90625 6.5697V12.4459L14.0625 15.3934ZM9.85875 4.95532L15 7.89345L20.1412 4.95532L15 2.0172L9.85875 4.95532ZM28.125 18.6241L22.9688 21.5697V27.4459L28.125 24.5003V18.6241ZM7.03125 27.4459V21.5697L1.875 18.6241V24.5003L7.03125 27.4459Z" fill="black"/>
  </g>
  <defs>
    <clipPath id="clip0_560_2575">
      <rect width="30" height="30" fill="white"/>
    </clipPath>
  </defs>
</svg>
